<?xml version="1.0" standalone="no"?>
<!DOCTYPE svg PUBLIC "-//W3C//DTD SVG 20010904//EN"
 "http://www.w3.org/TR/2001/REC-SVG-20010904/DTD/svg10.dtd">
<svg version="1.0" xmlns="http://www.w3.org/2000/svg"
 width="72.000000pt" height="73.000000pt" viewBox="0 0 72.000000 73.000000"
 preserveAspectRatio="xMidYMid meet">

<g transform="translate(0.000000,73.000000) scale(0.100000,-0.100000)"
fill="#000000" stroke="none">
<path d="M341 684 c-20 -14 -21 -24 -21 -168 0 -161 4 -176 46 -176 44 0 54
33 54 180 0 139 -5 160 -41 173 -9 3 -26 -1 -38 -9z"/>
<path d="M156 559 c-19 -17 -48 -56 -63 -87 -37 -76 -39 -182 -5 -257 84 -183
307 -240 466 -118 70 54 108 126 114 218 6 95 -15 158 -75 225 -48 53 -79 63
-107 34 -24 -23 -20 -38 25 -90 51 -59 59 -80 59 -154 0 -49 -5 -65 -32 -106
-92 -135 -292 -118 -359 31 -36 79 -21 160 45 233 37 41 45 69 24 90 -20 20
-56 13 -92 -19z"/>
</g>
</svg>
