<?xml version="1.0" standalone="no"?>
<!DOCTYPE svg PUBLIC "-//W3C//DTD SVG 20010904//EN"
 "http://www.w3.org/TR/2001/REC-SVG-20010904/DTD/svg10.dtd">
<svg version="1.0" xmlns="http://www.w3.org/2000/svg"
 width="59.000000pt" height="79.000000pt" viewBox="0 0 59.000000 79.000000"
 preserveAspectRatio="xMidYMid meet">
<metadata>
Created by potrace 1.10, written by Peter Selinger 2001-2011
</metadata>
<g transform="translate(0.000000,79.000000) scale(0.100000,-0.100000)"
fill="#000000" stroke="none">
<path d="M213 750 c-31 -12 -37 -29 -77 -188 -55 -215 -51 -229 59 -218 40 4
65 3 65 -3 0 -5 -13 -65 -30 -133 -16 -67 -30 -126 -30 -130 0 -5 9 -17 20
-28 18 -18 23 -19 48 -6 22 11 48 58 135 245 59 127 107 238 107 245 0 8 -8
22 -17 31 -13 14 -28 16 -76 10 -46 -5 -58 -3 -55 7 2 7 12 39 23 72 l19 58
-27 24 c-23 19 -39 24 -85 23 -31 0 -67 -4 -79 -9z m161 -29 c6 -10 -50 -167
-67 -188 -12 -17 -9 -17 85 8 53 13 84 17 91 10 6 -6 -7 -44 -37 -108 -26 -54
-77 -163 -114 -242 -37 -80 -72 -146 -77 -148 -6 -1 -15 1 -22 5 -9 6 -2 49
31 175 23 92 37 166 32 164 -39 -15 -167 -39 -173 -33 -7 6 58 297 77 344 9
20 16 22 89 22 44 0 82 -4 85 -9z"/>
</g>
</svg>
