<?xml version="1.0" standalone="no"?>
<!DOCTYPE svg PUBLIC "-//W3C//DTD SVG 20010904//EN"
 "http://www.w3.org/TR/2001/REC-SVG-20010904/DTD/svg10.dtd">
<svg version="1.0" xmlns="http://www.w3.org/2000/svg"
 width="82.000000pt" height="74.000000pt" viewBox="0 0 82.000000 74.000000"
 preserveAspectRatio="xMidYMid meet">

<g transform="translate(0.000000,74.000000) scale(0.100000,-0.100000)"
fill="#000000" stroke="none">
<path d="M0 370 l0 -370 410 0 410 0 0 370 0 370 -410 0 -410 0 0 -370z m561
311 c34 -34 38 -80 14 -138 -8 -19 -15 -37 -15 -39 0 -2 30 -4 67 -4 82 0 113
-22 113 -80 0 -20 -3 -40 -7 -44 -4 -4 -8 -22 -9 -39 -1 -30 -8 -62 -33 -161
-5 -22 -21 -51 -36 -65 -23 -24 -32 -26 -108 -25 -61 1 -105 9 -172 31 l-90
29 -3 146 c-3 146 -2 147 22 160 38 20 125 132 132 170 4 18 13 45 21 61 19
38 64 37 104 -2z m-296 -253 c3 -13 4 -81 3 -153 l-3 -130 -85 0 -85 0 -3 140
c-1 76 0 145 2 152 4 9 29 13 85 13 75 0 81 -2 86 -22z"/>
<path d="M155 231 c-8 -15 3 -31 21 -31 9 0 14 7 12 17 -4 20 -24 28 -33 14z"/>
</g>
</svg>
